<?xml version="1.0" encoding="iso-8859-1"?>
<!-- Generator: Adobe Illustrator 18.1.1, SVG Export Plug-In . SVG Version: 6.00 Build 0)  -->
<svg version="1.1" id="Capa_1" xmlns="http://www.w3.org/2000/svg" xmlns:xlink="http://www.w3.org/1999/xlink" x="0px" y="0px"
	 viewBox="0 0 23.64 23.64" style="enable-background:new 0 0 23.64 23.64;" xml:space="preserve">
<g>
	<path style="fill:#030104;" d="M6.995,19.049c2.077,0,3.852-1.48,4.827-2.5c0.976,1.02,2.746,2.5,4.823,2.5
		c3.576,0,6.076-2.494,6.076-6.063c0-3.935-3.103-6.479-6.104-8.938c-1.417-1.162-2.885-2.362-4.01-3.696
		C12.418,0.129,12.141,0,11.85,0h-0.058c-0.291,0-0.568,0.129-0.758,0.352c-1.126,1.332-2.593,2.533-4.01,3.695
		c-3.002,2.459-6.106,5.002-6.106,8.938C0.919,16.555,3.417,19.049,6.995,19.049z"/>
	<path style="fill:#030104;" d="M8.109,23.64c2.474-0.444,4.967-0.425,7.422,0c-2.455-3.692-3.711-10.833-3.711-10.833
		S10.583,19.948,8.109,23.64z"/>
</g>
<g>
</g>
<g>
</g>
<g>
</g>
<g>
</g>
<g>
</g>
<g>
</g>
<g>
</g>
<g>
</g>
<g>
</g>
<g>
</g>
<g>
</g>
<g>
</g>
<g>
</g>
<g>
</g>
<g>
</g>
</svg>
