<?xml version="1.0" encoding="iso-8859-1"?>
<!-- Generator: Adobe Illustrator 19.0.0, SVG Export Plug-In . SVG Version: 6.00 Build 0)  -->
<svg version="1.1" id="Capa_1" xmlns="http://www.w3.org/2000/svg" xmlns:xlink="http://www.w3.org/1999/xlink" x="0px" y="0px"
	 viewBox="0 0 297 297" style="enable-background:new 0 0 297 297;" xml:space="preserve">
<g>
	<path d="M255.5,20c0-11.046-8.954-20-20-20h-174c-11.046,0-20,8.954-20,20v257c0,11.046,8.954,20,20,20h174
		c11.046,0,20-8.954,20-20V20z M222.997,156.774c-2.883,0-5.437-1.379-7.06-3.508c-10.515,6.925-22.939,20.206-22.939,44.36
		c0,0-16.338-14.627-44.083-14.627c-0.028,0-0.055,0-0.083,0c-0.028,0-0.055,0-0.083,0c-27.745,0-44.083,14.627-44.083,14.627
		c0-24.235-12.507-37.53-23.044-44.442c-1.618,2.175-4.201,3.59-7.12,3.59c-4.904,0-8.878-3.974-8.878-8.879
		c0-4.902,3.974-8.877,8.878-8.877c4.344,0,7.954,3.122,8.723,7.242c21.323,3.234,36.125,19.519,36.125,19.519
		c0-24.604,17.943-54.574,25.794-66.51c-2.954-1.441-4.993-4.466-4.993-7.975c0-4.902,3.972-8.879,8.878-8.879
		c4.903,0,8.878,3.977,8.878,8.879c0,3.626-2.177,6.739-5.292,8.118c7.897,12.028,25.7,41.857,25.7,66.366
		c0,0,14.723-16.178,35.951-19.469c0.749-4.145,4.369-7.292,8.73-7.292c4.904,0,8.878,3.975,8.878,8.877
		C231.875,152.801,227.901,156.774,222.997,156.774z"/>
</g>
<g>
</g>
<g>
</g>
<g>
</g>
<g>
</g>
<g>
</g>
<g>
</g>
<g>
</g>
<g>
</g>
<g>
</g>
<g>
</g>
<g>
</g>
<g>
</g>
<g>
</g>
<g>
</g>
<g>
</g>
</svg>
