<svg height="512" viewBox="0 0 192 192" width="512" xmlns="http://www.w3.org/2000/svg"><g id="_19-club" data-name="19-club"><g id="Glyph"><path d="m144 64q-1.222 0-2.458.061a56.074 56.074 0 0 0 2.458-16.061 48 48 0 0 0 -96 0 56.074 56.074 0 0 0 2.458 16.061q-1.234-.061-2.458-.061a48 48 0 0 0 0 96 53.247 53.247 0 0 0 29.757-9.56c-2.028 11.139-5.815 19.231-9.681 23.2-.86.879-2.535 2.36-4.076 2.36a8 8 0 0 0 0 16h64a8 8 0 0 0 0-16c-1.258 0-2.873-.945-4.548-2.663-4-4.1-7.922-12.158-10.063-23.031a55.878 55.878 0 0 0 30.611 9.694 48 48 0 0 0 0-96z"/></g></g></svg>